# xmcd
# 
# Track frame offsets:
#     182
#     13347
#     26975
#     39597
#     51670
#     62650
#     75115
#     88417
#     100300
#     113940
# 
# Disc length: 1689
# 
# Revision: 3
# Processed by: cddbd v1.5.2PL0 Copyright (c) Steve Scherf et al.
# Submitted via: fre:ac v1.0.31
# 
DISCID=8706970a
DTITLE=Eddy Arnold - Best Of
DYEAR=1991
DGENRE=Country
TTITLE0=What In The World's Come Over You
TTITLE1=Today I'm Bringing Daddy's Letter Home
TTITLE2=Red Roses For A Blue Lady
TTITLE3=Make The World Go Away
TTITLE4=Bouquet Of Roses
TTITLE5=Cattle Call
TTITLE6=So Many Ways
TTITLE7=If The Whole World Stopped Lovin'
TTITLE8=Butterfly
TTITLE9=I Wish That I Had Loved You Better
EXTD=
EXTT0=
EXTT1=
EXTT2=
EXTT3=
EXTT4=
EXTT5=
EXTT6=
EXTT7=
EXTT8=
EXTT9=
PLAYORDER=
